<?xml version="1.0" encoding="UTF-8" standalone="no"?>
<svg width="1960" height="640" xmlns="http://www.w3.org/2000/svg">
  <rect width="100%" height="100%" fill="#ffffff"/>
  <g transform="translate(40, 40)">
    <line x1="140" y1="40" x2="500" y2="115" stroke="#666" stroke-width="1.5"/>
    <line x1="140" y1="40" x2="1140" y2="40" stroke="#666" stroke-width="1.5"/>
    <line x1="1140" y1="40" x2="1460" y2="40" stroke="#666" stroke-width="1.5"/>
    <line x1="1460" y1="40" x2="1780" y2="40" stroke="#666" stroke-width="1.5"/>
    <line x1="500" y1="115" x2="820" y2="115" stroke="#666" stroke-width="1.5"/>
    <line x1="820" y1="115" x2="1140" y2="40" stroke="#666" stroke-width="1.5"/>
    <rect x="40" y="0" width="200" height="80" fill="#4a90e2" stroke="#333" stroke-width="1" rx="2"/>
    <text x="140" y="40" text-anchor="middle" dominant-baseline="central" font-family="Arial, sans-serif" font-size="12" fill="#fff" font-weight="bold">1</text>
    <rect x="400" y="75" width="200" height="80" fill="#50c878" stroke="#333" stroke-width="1" rx="2"/>
    <text x="500" y="115" text-anchor="middle" dominant-baseline="central" font-family="Arial, sans-serif" font-size="12" fill="#fff" font-weight="bold">2</text>
    <rect x="1040" y="0" width="200" height="80" fill="#f5a623" stroke="#333" stroke-width="1" rx="2"/>
    <text x="1140" y="40" text-anchor="middle" dominant-baseline="central" font-family="Arial, sans-serif" font-size="12" fill="#fff" font-weight="bold">3</text>
    <rect x="1360" y="0" width="200" height="80" fill="#d0021b" stroke="#333" stroke-width="1" rx="2"/>
    <text x="1460" y="40" text-anchor="middle" dominant-baseline="central" font-family="Arial, sans-serif" font-size="12" fill="#fff" font-weight="bold">4</text>
    <rect x="1680" y="0" width="200" height="80" fill="#9013fe" stroke="#333" stroke-width="1" rx="2"/>
    <text x="1780" y="40" text-anchor="middle" dominant-baseline="central" font-family="Arial, sans-serif" font-size="12" fill="#fff" font-weight="bold">5</text>
    <rect x="720" y="75" width="200" height="80" fill="#417505" stroke="#333" stroke-width="1" rx="2"/>
    <text x="820" y="115" text-anchor="middle" dominant-baseline="central" font-family="Arial, sans-serif" font-size="12" fill="#fff" font-weight="bold">6</text>
    <rect x="0" y="180" width="280" height="380" fill="#8b572a" stroke="#333" stroke-width="1" rx="2"/>
    <text x="140" y="370" text-anchor="middle" dominant-baseline="central" font-family="Arial, sans-serif" font-size="12" fill="#fff" font-weight="bold">7</text>
    <rect x="40" y="260" width="200" height="80" fill="#bd10e0" stroke="#333" stroke-width="1" rx="2"/>
    <text x="140" y="300" text-anchor="middle" dominant-baseline="central" font-family="Arial, sans-serif" font-size="12" fill="#fff" font-weight="bold">8</text>
    <rect x="40" y="440" width="200" height="80" fill="#7ed321" stroke="#333" stroke-width="1" rx="2"/>
    <text x="140" y="480" text-anchor="middle" dominant-baseline="central" font-family="Arial, sans-serif" font-size="12" fill="#fff" font-weight="bold">9</text>
    <rect x="40" y="260" width="200" height="260" fill="rgba(0, 150, 255, 0.1)" stroke="rgba(0, 150, 255, 0.5)" stroke-width="1" stroke-dasharray="4,2"/>
    <text x="140" y="220" text-anchor="middle" dominant-baseline="central" font-family="Arial, sans-serif" font-size="10" fill="#007acc">top padding=80</text>
    <text x="20" y="370" text-anchor="middle" dominant-baseline="central" font-family="Arial, sans-serif" font-size="10" fill="#007acc" transform="rotate(-90, 20, 370)">side padding=40</text>
  </g>
</svg>