<?xml version="1.0" encoding="UTF-8" standalone="no"?>
<svg width="1920" height="620" xmlns="http://www.w3.org/2000/svg">
  <rect width="100%" height="100%" fill="#ffffff"/>
  <g transform="translate(40, 40)">
    <line x1="120" y1="40" x2="460" y2="115" stroke="#666" stroke-width="1.5"/>
    <line x1="120" y1="40" x2="1100" y2="40" stroke="#666" stroke-width="1.5"/>
    <line x1="1100" y1="40" x2="1420" y2="40" stroke="#666" stroke-width="1.5"/>
    <line x1="1420" y1="40" x2="1740" y2="40" stroke="#666" stroke-width="1.5"/>
    <line x1="460" y1="115" x2="780" y2="115" stroke="#666" stroke-width="1.5"/>
    <line x1="780" y1="115" x2="1100" y2="40" stroke="#666" stroke-width="1.5"/>
    <rect x="20" y="0" width="200" height="80" fill="#4a90e2" stroke="#333" stroke-width="1" rx="2"/>
    <text x="120" y="40" text-anchor="middle" dominant-baseline="central" font-family="Arial, sans-serif" font-size="12" fill="#fff" font-weight="bold">1</text>
    <rect x="360" y="75" width="200" height="80" fill="#50c878" stroke="#333" stroke-width="1" rx="2"/>
    <text x="460" y="115" text-anchor="middle" dominant-baseline="central" font-family="Arial, sans-serif" font-size="12" fill="#fff" font-weight="bold">2</text>
    <rect x="1000" y="0" width="200" height="80" fill="#f5a623" stroke="#333" stroke-width="1" rx="2"/>
    <text x="1100" y="40" text-anchor="middle" dominant-baseline="central" font-family="Arial, sans-serif" font-size="12" fill="#fff" font-weight="bold">3</text>
    <rect x="1320" y="0" width="200" height="80" fill="#d0021b" stroke="#333" stroke-width="1" rx="2"/>
    <text x="1420" y="40" text-anchor="middle" dominant-baseline="central" font-family="Arial, sans-serif" font-size="12" fill="#fff" font-weight="bold">4</text>
    <rect x="1640" y="0" width="200" height="80" fill="#9013fe" stroke="#333" stroke-width="1" rx="2"/>
    <text x="1740" y="40" text-anchor="middle" dominant-baseline="central" font-family="Arial, sans-serif" font-size="12" fill="#fff" font-weight="bold">5</text>
    <rect x="680" y="75" width="200" height="80" fill="#417505" stroke="#333" stroke-width="1" rx="2"/>
    <text x="780" y="115" text-anchor="middle" dominant-baseline="central" font-family="Arial, sans-serif" font-size="12" fill="#fff" font-weight="bold">6</text>
    <rect x="0" y="180" width="240" height="360" fill="#8b572a" stroke="#333" stroke-width="1" rx="2"/>
    <text x="120" y="360" text-anchor="middle" dominant-baseline="central" font-family="Arial, sans-serif" font-size="12" fill="#fff" font-weight="bold">7</text>
    <rect x="20" y="260" width="200" height="80" fill="#bd10e0" stroke="#333" stroke-width="1" rx="2"/>
    <text x="120" y="300" text-anchor="middle" dominant-baseline="central" font-family="Arial, sans-serif" font-size="12" fill="#fff" font-weight="bold">8</text>
    <rect x="20" y="440" width="200" height="80" fill="#7ed321" stroke="#333" stroke-width="1" rx="2"/>
    <text x="120" y="480" text-anchor="middle" dominant-baseline="central" font-family="Arial, sans-serif" font-size="12" fill="#fff" font-weight="bold">9</text>
    <rect x="20" y="260" width="200" height="260" fill="rgba(0, 150, 255, 0.1)" stroke="rgba(0, 150, 255, 0.5)" stroke-width="1" stroke-dasharray="4,2"/>
    <text x="120" y="220" text-anchor="middle" dominant-baseline="central" font-family="Arial, sans-serif" font-size="10" fill="#007acc">top padding=80</text>
    <text x="10" y="360" text-anchor="middle" dominant-baseline="central" font-family="Arial, sans-serif" font-size="10" fill="#007acc" transform="rotate(-90, 10, 360)">side padding=20</text>
  </g>
</svg>